<mxfile host="Electron" modified="2023-12-13T12:02:11.502Z" agent="Mozilla/5.0 (Windows NT 10.0; Win64; x64) AppleWebKit/537.36 (KHTML, like Gecko) draw.io/22.1.2 Chrome/114.0.5735.289 Electron/25.9.4 Safari/537.36" etag="Vf16TqyWTIk_5wiyYgkS" version="22.1.2" type="device">
  <diagram name="Trang-1" id="ZUYWbBMKKYJvkrRnc7i3">
    <mxGraphModel dx="552" dy="647" grid="1" gridSize="10" guides="1" tooltips="1" connect="1" arrows="1" fold="1" page="1" pageScale="1" pageWidth="827" pageHeight="1169" math="0" shadow="0">
      <root>
        <mxCell id="0" />
        <mxCell id="1" parent="0" />
        <mxCell id="sQWnYVVU04eUqm-j0qlv-1" value="Người dùng" style="shape=umlActor;verticalLabelPosition=bottom;verticalAlign=top;html=1;fillColor=#fff2cc;strokeColor=#d6b656;" vertex="1" parent="1">
          <mxGeometry x="40" y="360" width="30" height="60" as="geometry" />
        </mxCell>
        <mxCell id="sQWnYVVU04eUqm-j0qlv-2" value=":Profile Page" style="html=1;whiteSpace=wrap;fillColor=#fff2cc;strokeColor=#d6b656;" vertex="1" parent="1">
          <mxGeometry x="340" y="365" width="110" height="50" as="geometry" />
        </mxCell>
        <mxCell id="sQWnYVVU04eUqm-j0qlv-3" value="Database" style="html=1;whiteSpace=wrap;fillColor=#fff2cc;strokeColor=#d6b656;" vertex="1" parent="1">
          <mxGeometry x="688" y="365" width="110" height="50" as="geometry" />
        </mxCell>
        <mxCell id="sQWnYVVU04eUqm-j0qlv-4" value="" style="endArrow=none;html=1;rounded=0;entryX=0;entryY=0.5;entryDx=0;entryDy=0;exitX=0.5;exitY=0.5;exitDx=0;exitDy=0;exitPerimeter=0;" edge="1" parent="1" source="sQWnYVVU04eUqm-j0qlv-1" target="sQWnYVVU04eUqm-j0qlv-2">
          <mxGeometry width="50" height="50" relative="1" as="geometry">
            <mxPoint x="200" y="460" as="sourcePoint" />
            <mxPoint x="250" y="410" as="targetPoint" />
          </mxGeometry>
        </mxCell>
        <mxCell id="sQWnYVVU04eUqm-j0qlv-5" value="" style="endArrow=none;html=1;rounded=0;entryX=1;entryY=0.5;entryDx=0;entryDy=0;exitX=0;exitY=0.5;exitDx=0;exitDy=0;" edge="1" parent="1" source="sQWnYVVU04eUqm-j0qlv-3" target="sQWnYVVU04eUqm-j0qlv-2">
          <mxGeometry width="50" height="50" relative="1" as="geometry">
            <mxPoint x="200" y="460" as="sourcePoint" />
            <mxPoint x="250" y="410" as="targetPoint" />
          </mxGeometry>
        </mxCell>
        <mxCell id="sQWnYVVU04eUqm-j0qlv-6" value="1: Nhập các thông tin cần thay đổi vào form&lt;br&gt;2: Nhấn vào nút lưu thay đổi" style="html=1;verticalAlign=bottom;endArrow=block;curved=0;rounded=0;fillColor=#dae8fc;strokeColor=#6c8ebf;" edge="1" parent="1">
          <mxGeometry y="10" width="80" relative="1" as="geometry">
            <mxPoint x="128" y="380" as="sourcePoint" />
            <mxPoint x="298" y="380" as="targetPoint" />
            <mxPoint as="offset" />
          </mxGeometry>
        </mxCell>
        <mxCell id="sQWnYVVU04eUqm-j0qlv-7" value="5.2: Hiển thị thông tin cá nhân vào form" style="html=1;verticalAlign=bottom;endArrow=open;dashed=1;endSize=8;curved=0;rounded=0;fillColor=#d5e8d4;strokeColor=#82b366;" edge="1" parent="1">
          <mxGeometry y="20" relative="1" as="geometry">
            <mxPoint x="298" y="400" as="sourcePoint" />
            <mxPoint x="128" y="400" as="targetPoint" />
            <mxPoint as="offset" />
          </mxGeometry>
        </mxCell>
        <mxCell id="sQWnYVVU04eUqm-j0qlv-8" value="3: Gửi thông tin của người dùng" style="html=1;verticalAlign=bottom;endArrow=block;curved=0;rounded=0;fillColor=#dae8fc;strokeColor=#6c8ebf;" edge="1" parent="1">
          <mxGeometry y="10" width="80" relative="1" as="geometry">
            <mxPoint x="498" y="380" as="sourcePoint" />
            <mxPoint x="618" y="380" as="targetPoint" />
            <mxPoint as="offset" />
          </mxGeometry>
        </mxCell>
        <mxCell id="sQWnYVVU04eUqm-j0qlv-9" value="4.1: Trả về thông báo cập nhật thành công&lt;br&gt;4.2: Trả về thông báo lỗi" style="html=1;verticalAlign=bottom;endArrow=open;dashed=1;endSize=8;curved=0;rounded=0;fillColor=#d5e8d4;strokeColor=#82b366;" edge="1" parent="1">
          <mxGeometry y="50" relative="1" as="geometry">
            <mxPoint x="618" y="400" as="sourcePoint" />
            <mxPoint x="498" y="400" as="targetPoint" />
            <mxPoint as="offset" />
          </mxGeometry>
        </mxCell>
        <mxCell id="sQWnYVVU04eUqm-j0qlv-10" value="4:&amp;nbsp;Cập nhật dữ liệu" style="html=1;verticalAlign=bottom;endArrow=block;curved=0;rounded=0;fillColor=#dae8fc;strokeColor=#6c8ebf;" edge="1" parent="1">
          <mxGeometry y="10" width="80" relative="1" as="geometry">
            <mxPoint x="718" y="310" as="sourcePoint" />
            <mxPoint x="768" y="310" as="targetPoint" />
            <mxPoint as="offset" />
          </mxGeometry>
        </mxCell>
        <mxCell id="sQWnYVVU04eUqm-j0qlv-11" value="" style="endArrow=none;html=1;rounded=0;entryX=0.25;entryY=0;entryDx=0;entryDy=0;exitX=0.75;exitY=0;exitDx=0;exitDy=0;" edge="1" parent="1" source="sQWnYVVU04eUqm-j0qlv-2" target="sQWnYVVU04eUqm-j0qlv-2">
          <mxGeometry width="50" height="50" relative="1" as="geometry">
            <mxPoint x="410" y="360" as="sourcePoint" />
            <mxPoint x="370" y="360" as="targetPoint" />
            <Array as="points">
              <mxPoint x="423" y="320" />
              <mxPoint x="368" y="320" />
            </Array>
          </mxGeometry>
        </mxCell>
        <mxCell id="sQWnYVVU04eUqm-j0qlv-12" value="" style="endArrow=none;html=1;rounded=0;entryX=0.294;entryY=0.016;entryDx=0;entryDy=0;entryPerimeter=0;exitX=0.656;exitY=0;exitDx=0;exitDy=0;exitPerimeter=0;" edge="1" parent="1" source="sQWnYVVU04eUqm-j0qlv-3" target="sQWnYVVU04eUqm-j0qlv-3">
          <mxGeometry width="50" height="50" relative="1" as="geometry">
            <mxPoint x="770" y="360" as="sourcePoint" />
            <mxPoint x="720" y="360" as="targetPoint" />
            <Array as="points">
              <mxPoint x="760" y="320" />
              <mxPoint x="720" y="320" />
            </Array>
          </mxGeometry>
        </mxCell>
        <mxCell id="sQWnYVVU04eUqm-j0qlv-13" value="5.1:&amp;nbsp;Chuyển hướng tới trang hồ sơ thông tin cá nhân" style="html=1;verticalAlign=bottom;endArrow=block;curved=0;rounded=0;fillColor=#dae8fc;strokeColor=#6c8ebf;" edge="1" parent="1">
          <mxGeometry y="10" width="80" relative="1" as="geometry">
            <mxPoint x="370" y="310" as="sourcePoint" />
            <mxPoint x="420" y="310" as="targetPoint" />
            <mxPoint as="offset" />
          </mxGeometry>
        </mxCell>
      </root>
    </mxGraphModel>
  </diagram>
</mxfile>
